<svg aria-hidden="true" style="position:absolute;width:0;height:0;overflow:hidden"
  xmlns="http://www.w3.org/2000/svg">
  <defs>
    <symbol id="icon-search" viewBox="0 0 32 32">
      <path fill="#575757" style="fill:var(--color1, #575757)"
        d="M25.253 23.026 32 29.771 29.771 32l-6.745-6.747a14.119 14.119 0 0 1-8.848 3.102C6.352 28.355.001 22.003.001 14.178S6.352.001 14.178.001s14.177 6.351 14.177 14.177a14.117 14.117 0 0 1-3.102 8.848zm-3.16-1.169a10.99 10.99 0 0 0 3.111-7.679c0-6.093-4.935-11.027-11.027-11.027-6.093 0-11.027 4.934-11.027 11.027 0 6.092 4.934 11.027 11.027 11.027a10.99 10.99 0 0 0 7.679-3.111l.236-.236z" />
    </symbol>
    <symbol id="icon-calendar" viewBox="0 0 16 16">
      <path
      fill="transparent" d="M12 2.66675H3.99998C2.52722 2.66675 1.33331 3.86066 1.33331 5.33341V12.0001C1.33331 13.4728 2.52722 14.6667 3.99998 14.6667H12C13.4727 14.6667 14.6666 13.4728 14.6666 12.0001V5.33341C14.6666 3.86066 13.4727 2.66675 12 2.66675Z"
        stroke="#363636" stroke-linecap="round" stroke-linejoin="round" />
      <path d="M5.33331 1.33337V4.00004" stroke="#363636" stroke-linecap="round"
        stroke-linejoin="round" />
      <path d="M10.6666 1.33337V4.00004" stroke="#363636" stroke-linecap="round"
        stroke-linejoin="round" />
      <path d="M1.33331 6.66675H14.6666" stroke="#363636" stroke-linecap="round"
        stroke-linejoin="round" />
    </symbol>
    <symbol id="icon-arrow-right" viewBox="0 0 38 32">
      <path
        d="M21.339.52a1.79 1.79 0 0 0 .005 2.506l7.766 7.849.179.159a1.723 1.723 0 0 0 2.288-.163c.34-.347.51-.798.51-1.249 0-.456-.17-.909-.514-1.257L23.809.516 23.63.358a1.73 1.73 0 0 0-2.29.163zM1.527 14.242A1.764 1.764 0 0 0 0 16c0 .978.782 1.771 1.745 1.771h30.683L21.343 28.973l-.157.181a1.792 1.792 0 0 0 .152 2.325c.68.692 1.785.694 2.467.005l14.08-14.23.155-.178a1.785 1.785 0 0 0 .226-1.752 1.743 1.743 0 0 0-1.613-1.096l-35.128.014z" />
    </symbol>
    <symbol id="icon-arrow-left" viewBox="0 0 38 32">
      <path
        d="M17.061.52a1.79 1.79 0 0 1-.005 2.506L9.29 10.875l-.179.159a1.723 1.723 0 0 1-2.288-.163 1.78 1.78 0 0 1-.51-1.249c0-.456.17-.909.514-1.257L14.591.516l.179-.158a1.73 1.73 0 0 1 2.29.163zm19.812 13.722c.86.109 1.527.855 1.527 1.758 0 .978-.782 1.771-1.746 1.771H5.971l11.085 11.202.157.181a1.792 1.792 0 0 1-.152 2.325 1.728 1.728 0 0 1-2.467.005L.514 17.254l-.155-.178a1.785 1.785 0 0 1-.226-1.751 1.743 1.743 0 0 1 1.613-1.096l35.128.014z" />
    </symbol>
  </defs>
</svg>